# xmcd
#
# Track frame offsets:
#	150
#	13561
#	29201
#	48105
#	64465
#	80039
#	97863
#	111653
#	132043
#	145023
#	156248
#	185189
#	229112
#	243170
#	255959
#	272912
#	288164
#
# Disc length: 3987 seconds
#
# Revision: 1
# Processed by: cddbd v1.5.2PL0 Copyright (c) Steve Scherf et al.
# Submitted via: EasyCDDAExtractor 15.3.0.1
#
DISCID=f10f9111
DTITLE=ΔΙΑΦΟΡΟΙ - ΣΤΟΥ ΤΡΑΓΟΥΔΙΟΥ ΤΗΝ ΟΧΘΗ
DYEAR=2009
DGENRE=Ελληνικά Ελαφρά
TTITLE0=Ορφέας Περίδης - Κυψέλη
TTITLE1=Μπάμπης Στόκας - Ο βασιλιάς (Ζωντανά)
TTITLE2=Πέτρος Βαγιόπουλος Ορφέας Περίδης - Ρωσικά μου μάτια
TTITLE3=Αρετή Κετιμέ - Άι γαρούφαλλό μου (Εις μνημόσυνον) (Ζωντανά)
TTITLE4=Κώστας Μακεδόνας - Μαργαριτάρια
TTITLE5=Γλυκερία - Κάποτε θα 'ρθουν
TTITLE6=Μανώλης Μητσιάς - Είναι νύχτα και τα ξέρει όλα
TTITLE7=Δημήτρης Μπάσης - Πάμε μια βόλτα στο φεγγάρι (Ζωντανά)
TTITLE8=Αναστασία Μουτσάτσου - Φιλί Φιλάκι (Remastered Version)
TTITLE9=Κωστής Αβυσσινός - Όποιος θωρεί τα μάτια σου
TTITLE10=Νίκη Ξυλούρη - Κόρη Κρητικιά
TTITLE11=Ελένη Βιτάλη - Μακριά μου να φύγεις (Ζωντανά)
TTITLE12=Ελένη and Σουζάν Βουγιουκλή Χρήστος Θηβαίος - Καληνύφτα
TTITLE13=Νένα Βενετσιάνου - Πόλεις του νότου (Remastered Version)
TTITLE14=Αλέκα Κανελλίδου - Αναπνοή μου (Remix by Stereomatic)
TTITLE15=Magic De Spell - Στη ζώνη του πυρός
TTITLE16=Παύλος Σιδηρόπουλος - Στην Κ
EXTD=
EXTT0=
EXTT1=
EXTT2=
EXTT3=
EXTT4=
EXTT5=
EXTT6=
EXTT7=
EXTT8=
EXTT9=
EXTT10=
EXTT11=
EXTT12=
EXTT13=
EXTT14=
EXTT15=
EXTT16=
PLAYORDER=
